@startuml

left to right direction
allowmixing

title Abstract factory Pattern

note as general
    <b>Abstract Factory Pattern
    Provide an interface for creating families 
    of related or dependent objects without
    specifying their concrete classes.
end note

class AbstractFactory
class ConcreteFactory1
class ConcreteFactory2

rectangle Client

rectangle AbstractProductA
rectangle ProductA1
rectangle ProductA2

rectangle AbstractProductB
rectangle ProductB1
rectangle ProductB2

AbstractFactory : CreateProductA()
AbstractFactory : CreateProductB()

ConcreteFactory1 : CreateProductA()
ConcreteFactory1 : CreateProductB()

ConcreteFactory2 : CreateProductA()
ConcreteFactory2 : CreateProductB()

Client --> AbstractFactory
Client --> AbstractProductA
Client --> AbstractProductB

AbstractProductA <|-- ProductA1
AbstractProductA <|-- ProductA2

AbstractProductB <|-- ProductB1
AbstractProductB <|-- ProductB2

AbstractFactory <|-- ConcreteFactory1
AbstractFactory <|-- ConcreteFactory2

ConcreteFactory2 ..> ProductA2
ConcreteFactory2 ..> ProductB2

ConcreteFactory1 ..> ProductA1
ConcreteFactory1 ..> ProductB1

@enduml
